HIERARCHY
ROOT RootJoint
{
    OFFSET   0.000000   0.000000   0.000000
    CHANNELS 6 Xposition Yposition Zposition Xrotation Yrotation Zrotation
    JOINT pelvis_lowerback
    {
        OFFSET   0.000000   0.093605   0.000000
        CHANNELS 3 Xrotation Yrotation Zrotation
        JOINT lowerback_torso
        {
            OFFSET   0.000000   0.100000   0.000000
            CHANNELS 3 Xrotation Yrotation Zrotation
            JOINT torso_head
            {
                OFFSET   0.000000   0.282350   0.000000
                CHANNELS 3 Xrotation Yrotation Zrotation
                End Site
                {
                    OFFSET   0.000000   0.192650   0.000000
                }
            }
            JOINT rTorso_Clavicle
            {
                OFFSET  -0.001000   0.157500   0.000000
                CHANNELS 3 Xrotation Yrotation Zrotation
                JOINT rShoulder
                {
                    OFFSET  -0.117647   0.000000   0.000000
                    CHANNELS 3 Xrotation Yrotation Zrotation
                    JOINT rElbow
                    {
                        OFFSET  -0.245000   0.000000   0.000000
                        CHANNELS 3 Xrotation Yrotation Zrotation
                        JOINT rWrist
                        {
                            OFFSET  -0.240000   0.000000   0.000000
                            CHANNELS 3 Xrotation Yrotation Zrotation
                            End Site
                            {
                                OFFSET  -0.116353  -0.002500   0.000000
                            }
                        }
                    }
                }
            }
            JOINT lTorso_Clavicle
            {
                OFFSET   0.001000   0.157500   0.000000
                CHANNELS 3 Xrotation Yrotation Zrotation
                JOINT lShoulder
                {
                    OFFSET   0.117647   0.000000   0.000000
                    CHANNELS 3 Xrotation Yrotation Zrotation
                    JOINT lElbow
                    {
                        OFFSET   0.245000   0.000000   0.000000
                        CHANNELS 3 Xrotation Yrotation Zrotation
                        JOINT lWrist
                        {
                            OFFSET   0.240000   0.000000   0.000000
                            CHANNELS 3 Xrotation Yrotation Zrotation
                            End Site
                            {
                                OFFSET   0.116353  -0.002500   0.000000
                            }
                        }
                    }
                }
            }
        }
    }
    JOINT rHip
    {
        OFFSET  -0.100000  -0.051395   0.000000
        CHANNELS 3 Xrotation Yrotation Zrotation
        JOINT rKnee
        {
            OFFSET   0.000000  -0.410000   0.000000
            CHANNELS 3 Xrotation Yrotation Zrotation
            JOINT rAnkle
            {
                OFFSET   0.000000  -0.390000   0.000000
                CHANNELS 3 Xrotation Yrotation Zrotation
                JOINT rToeJoint
                {
                    OFFSET   0.000000  -0.050000   0.130000
                    CHANNELS 3 Xrotation Yrotation Zrotation
                    End Site
                    {
                        OFFSET  -0.010000   0.002000   0.060000
                    }
                }
            }
        }
    }
    JOINT lHip
    {
        OFFSET   0.100000  -0.051395   0.000000
        CHANNELS 3 Xrotation Yrotation Zrotation
        JOINT lKnee
        {
            OFFSET   0.000000  -0.410000   0.000000
            CHANNELS 3 Xrotation Yrotation Zrotation
            JOINT lAnkle
            {
                OFFSET   0.000000  -0.390000   0.000000
                CHANNELS 3 Xrotation Yrotation Zrotation
                JOINT lToeJoint
                {
                    OFFSET   0.000000  -0.050000   0.130000
                    CHANNELS 3 Xrotation Yrotation Zrotation
                    End Site
                    {
                        OFFSET   0.010000   0.002000   0.060000
                    }
                }
            }
        }
    }
}
MOTION
Frames: 17
Frame Time:   0.008333
 -2.376719   0.925631   3.975860   0.000000   0.000000   0.000000   0.000000   0.000000   0.000000   0.000000   0.000000   0.000000   0.000000   0.000000   0.000000   0.000000   0.000000   0.000000   0.000000   0.000000   0.000000   0.000000   0.000000   0.000000   0.000000   0.000000   0.000000   0.000000   0.000000   0.000000   0.000000   0.000000   0.000000   0.000000   0.000000   0.000000   0.000000   0.000000   0.000000   0.000000   0.000000   0.000000   0.000000   0.000000   0.000000   0.000000   0.000000   0.000000   0.000000   0.000000   0.000000   0.000000   0.000000   0.000000   0.000000   0.000000   0.000000   0.000000   0.000000   0.000000   0.000000   0.000000   0.000000
 -2.376327   0.925914   3.975279  -1.323419  -0.054174   0.241231   1.644859   0.090144  -0.073325   0.096427  -0.060945  -0.240469  -0.330902   0.092827   0.097190  -0.017583  -0.180153  -0.190529   1.439030   0.416251   2.229306   0.028422   1.626030  -0.026579   0.432945  -1.161318  -2.223614   0.084448  -0.019362  -0.301286   1.605902  -0.427556  -1.815644   0.023916  -1.235006   0.023047   0.409619   1.127363   2.677668   0.451560   0.083227  -0.184089   2.759884  -0.001362   0.000789  -0.223273  -0.172355   0.494411  -0.393559   0.001885   0.000516   0.928341   0.289681  -0.420579   1.785660   0.002852   0.003677  -1.853653   0.476910   0.501642   0.301108  -0.000847   0.001896
 -2.375858   0.926822   3.974332  -2.829906  -0.172862   0.432249   3.320033   0.169537  -0.078618   0.375166  -0.129658  -0.513416  -0.612597   0.184537   0.200502  -0.021750  -0.116856   0.161598   2.833269   1.103391   4.879465   0.066435   3.254787  -0.048485   0.909414  -1.697452  -3.885088   0.175592  -0.291130  -1.281224   3.122592  -1.105051  -4.099237   0.056992  -2.487029   0.041796   0.862279   1.758238   4.716565   0.733381   0.164167  -0.414462   5.186826  -0.000305  -0.000073  -0.871376  -0.367380   0.798133  -1.701547   0.004465   0.003198   2.023570   0.567484  -0.884602   3.760506   0.007191   0.005521  -3.584072   0.915031   0.986780   0.521144  -0.001075   0.002699
 -2.375550   0.927858   3.973461  -4.355052  -0.229255   0.596894   4.896722   0.181151  -0.112722   0.681931  -0.243069  -0.802468  -0.867962   0.268590   0.312513  -0.031953   0.094845   0.871826   4.163724   1.979969   7.801654   0.104268   4.824925  -0.063708   1.385400  -1.862860  -4.914430   0.247389  -0.740857  -2.663561   4.497742  -1.946206  -6.564196   0.090388  -3.714173   0.054517   1.316454   1.993137   5.971464   0.948400   0.224322  -0.598675   7.762240   0.000177   0.000096  -1.269206  -0.571209   1.142025  -3.406525   0.008070   0.006036   3.181944   0.803320  -1.379535   5.679040   0.011652   0.006972  -5.199243   1.307771   1.450623   0.725632  -0.001082   0.003217
 -2.375432   0.928690   3.972794  -5.818429  -0.279351   0.735238   6.337267   0.162291  -0.184972   0.953057  -0.377271  -1.113604  -1.112964   0.346234   0.422888  -0.052590   0.386094   1.799352   5.425295   3.000613  10.901467   0.137137   6.320882  -0.073203   1.856986  -1.806941  -5.472796   0.292497  -1.282648  -4.271921   5.733869  -2.885533  -9.079521   0.119603  -4.897692   0.062082   1.772764   1.959950   6.652034   1.149958   0.244978  -0.730370  10.310657  -0.000127  -0.000437  -1.550956  -0.813194   1.483374  -5.216178   0.011290   0.010015   4.339777   1.008125  -1.894179   7.494328   0.015700   0.007272  -6.709725   1.661492   1.894157   0.907079  -0.000955   0.003411
 -2.375501   0.929117   3.972320  -7.196853  -0.341399   0.835265   7.650922   0.124944  -0.286947   1.176548  -0.519934  -1.443582  -1.352332   0.417949   0.527440  -0.084828   0.711998   2.847371   6.614710   4.133241  14.114190   0.163078   7.735208  -0.078417   2.318409  -1.624459  -5.712156   0.310219  -1.860237  -5.997718   6.838758  -3.875189 -11.570538   0.142633  -6.025878   0.065799   2.224540   1.764527   6.940660   1.335807   0.266775  -0.809374  12.718674  -0.000762  -0.000965  -1.788370  -1.049167   1.805921  -6.813632   0.012987   0.012892   5.465686   1.183479  -2.412695   9.203515   0.019127   0.006439  -8.122327   1.980088   2.317436   1.068097  -0.000759   0.003356
 -2.375730   0.929023   3.972013  -8.488814  -0.411389   0.886223   8.853113   0.072760  -0.407859   1.360114  -0.666629  -1.779292  -1.585074   0.484011   0.623079  -0.125760   1.045165   3.975321   7.702096   5.328133  17.331652   0.181360   9.067008  -0.080210   2.765757  -1.365879  -5.706259   0.303426  -2.441060  -7.773016   7.822630  -4.884077 -13.995323   0.159040  -7.093581   0.066827   2.664908   1.475975   6.964265   1.510812   0.298764  -0.829622  14.986243  -0.001473  -0.001213  -2.015607  -1.266287   2.107188  -8.366249   0.013904   0.014912   6.547440   1.331223  -2.923710  10.809757   0.021918   0.004853  -9.443124   2.267063   2.720436   1.212224  -0.000531   0.003150
 -2.376063   0.927880   3.971206  -9.204917  -0.432322   0.800469   9.550897   0.070048  -0.427124   1.402209  -0.767633  -2.049031  -1.756353   0.372831   0.637985   0.159218   1.429584   4.603795   8.904674   6.378986  20.442836   0.195520  10.525216  -0.088822   3.080028  -0.979587  -5.033930   0.396701  -3.145698  -8.911294   8.727934  -5.981471 -16.566071   0.176990  -8.400130   0.071748   2.960442   1.172270   6.344182   0.976402   0.299251  -0.693514  17.357047  -0.002369  -0.001189  -2.425161  -1.419301   2.236321  -9.524136   0.012192   0.014420   7.192712   1.519496  -3.258380  11.725395   0.021112   0.004204 -10.519875   2.561397   3.084174   1.511883  -0.000210   0.003719
 -2.376419   0.925932   3.970205  -9.800559  -0.350736   0.673684  10.211663   0.020492  -0.429332   1.400917  -0.911794  -2.283204  -1.928831   0.266070   0.649507   0.415958   1.802105   5.068562   9.978250   7.417448  23.254047   0.198838  11.891836  -0.093298   3.393957  -0.542257  -4.385350   0.448540  -3.878642  -9.844635   9.517805  -7.094927 -18.868203   0.184424  -9.649119   0.074735   3.264348   0.707269   5.764244   0.395139   0.289225  -0.513497  19.578120  -0.002460   0.000646  -2.850308  -1.561319   2.348173 -11.072679   0.010868   0.013354   7.764255   1.690614  -3.526154  12.462951   0.019791   0.004099 -11.531562   2.830111   3.429196   1.789685   0.000068   0.004225
 -2.376771   0.923605   3.969047 -10.323377  -0.208526   0.478899  10.854880  -0.060914  -0.390477   1.396269  -1.085292  -2.480871  -2.090860   0.167002   0.660946   0.639925   2.160861   5.439177  10.931173   8.434589  25.811356   0.195382  13.169170  -0.094519   3.693518  -0.115147  -3.878478   0.464178  -4.613889 -10.653887  10.204917  -8.195426 -20.948980   0.184797 -10.828839   0.076086   3.565962   0.183723   5.343842  -0.189542   0.288362  -0.262954  21.683707  -0.001948   0.003329  -3.427338  -1.677337   2.401053 -11.794144   0.008872   0.010787   8.293847   1.847734  -3.716014  13.121316   0.018470   0.004115 -12.477870   3.076177   3.756083   2.049861   0.000323   0.004579
 -2.377081   0.921002   3.967785 -10.784458  -0.068397   0.250746  11.474363  -0.152964  -0.348385   1.394975  -1.267737  -2.657112  -2.238785   0.075190   0.672211   0.836892   2.501392   5.742252  11.777757   9.421899  28.154666   0.187611  14.362909  -0.093191   3.978528   0.294571  -3.478418   0.454439  -5.327275 -11.361031  10.804532  -9.261858 -22.842103   0.180415 -11.937616   0.076052   3.859584  -0.356421   5.047123  -0.777758   0.273387   0.021265  23.656161  -0.001447   0.005109  -4.002270  -1.787379   2.451560 -12.390191   0.007262   0.008704   8.798392   1.994157  -3.882145  13.725055   0.017230   0.003933 -13.362324   3.301582   4.065512   2.292055   0.000562   0.004691
 -2.377324   0.918202   3.966450 -11.192876   0.054407  -0.001768  12.068476  -0.253080  -0.307508   1.398300  -1.453542  -2.819433  -2.373468  -0.010201   0.682011   1.012836   2.818021   5.993980  12.532059  10.370202  30.310069   0.177152  15.476800  -0.089905   4.249228   0.680843  -3.155596   0.427415  -6.006711 -11.986631  11.329528 -10.282700 -24.573707   0.172940 -12.976243   0.074885   4.142566  -0.890214   4.840476  -1.366041   0.253128   0.326338  25.506954  -0.000993   0.006102  -4.566354  -1.885220   2.493660 -12.885229   0.005927   0.007014   9.285329   2.128992  -4.039774  14.286727   0.016096   0.003554 -14.188644   3.507764   4.357945   2.516716   0.000783   0.004595
 -2.377488   0.915265   3.965056 -11.555813   0.156431  -0.274507  12.636691  -0.360594  -0.269297   1.406890  -1.641178  -2.970899  -2.496250  -0.089800   0.690264   1.173307   3.106679   6.204900  13.206917  11.272931  32.298144   0.165131  16.514427  -0.085192   4.505885   1.037352  -2.889325   0.389087  -6.646695 -12.545154  11.790716 -11.252231 -26.163976   0.163561 -13.947095   0.072830   4.413900  -1.405371   4.699066  -1.951285   0.230251   0.645966  27.244977  -0.000598   0.006493  -5.113105  -1.969243   2.528774 -13.298677   0.004823   0.005647   9.758111   2.252610  -4.194393  14.812797   0.015059   0.003038 -14.960471   3.696352   4.633943   2.724838   0.000980   0.004352
 -2.378388   0.911674   3.963555 -11.515491   0.466118  -0.751969  12.796977  -0.476464  -0.258958   1.384917  -1.762586  -2.908765  -2.557040  -0.059831   0.774593   1.367222   3.121563   6.105592  13.855195  12.050985  34.091482   0.148562  17.443440  -0.078827   4.708627   1.633089  -2.196313   0.404937  -7.211803 -12.574173  11.956903 -12.229388 -27.447072   0.157227 -15.359081   0.072056   4.586637  -1.843675   3.802259  -2.756821   0.182959   1.235267  28.630674   0.000033   0.009049  -5.919012  -2.043595   2.643490 -13.058966   0.003507   0.004954   9.990909   2.204736  -3.861199  14.692469   0.011806   0.002315 -15.196203   3.534808   4.776163   2.879945   0.000855   0.003527
 -2.379522   0.907835   3.961846 -11.368483   0.862498  -1.276680  12.936548  -0.608197  -0.266540   1.306613  -1.910320  -2.806623  -2.613621  -0.021163   0.853225   1.560471   3.084185   5.860811  14.469327  12.734131  35.659944   0.130844  18.288278  -0.072131   4.891671   2.125291  -1.621008   0.367257  -7.763991 -12.338549  12.081796 -13.141482 -28.446860   0.144848 -16.696397   0.069624   4.756227  -2.405686   3.184408  -3.582992   0.128849   1.889977  29.910258   0.000870   0.011886  -6.833179  -2.071759   2.725902 -12.616106   0.002175   0.005396  10.166105   2.137979  -3.318504  14.456851   0.009244   0.001410 -15.414144   3.381762   4.908862   3.063953   0.000549   0.003005
 -2.379699   0.907603   3.960901 -11.560683   0.848487  -0.968731  13.275150  -0.659506  -0.911388   1.355446  -2.006653  -3.034320  -2.663463   0.019535   0.887618   1.731072   3.066770   5.779135  15.015800  13.391529  37.139457   0.115519  19.059418  -0.065123   5.063767   2.455148  -1.227413   0.330152  -8.264956 -12.099554  12.199641 -13.946524 -29.267166   0.131994 -17.910578   0.066350   4.916709  -2.809689   2.904680  -3.949853   0.257964   1.573678  30.803093   0.001401   0.010164  -7.274504  -2.124486   2.877088 -11.318363   0.000667   0.004559  10.056209   2.194530  -3.630340  14.930375   0.007563   0.001327 -15.231309   3.241511   5.080761   3.352122   0.000006   0.002181
 -2.379868   0.907989   3.960443 -11.680066   0.837335  -0.951243  13.471475  -0.727704  -1.205041   1.369491  -2.106679  -3.176287  -2.691444   0.058527   0.904070   1.905203   3.005425   5.494598  15.542448  13.972550  38.437727   0.100665  19.775699  -0.057452   5.226513   2.759374  -0.844877   0.321843  -8.705477 -11.784838  12.309242 -14.693285 -30.042642   0.117914 -19.053536   0.062937   5.068339  -3.214474   2.625824  -4.414712   0.335014   1.526828  31.563080   0.001721   0.008438  -7.704755  -2.210791   3.001087 -10.346460   0.000061   0.003404  10.032384   2.276897  -3.633049  15.171995   0.006071   0.001164 -15.242191   3.151074   5.145750   3.530364  -0.000115   0.001696
